<svg height="512pt" viewBox="-1 0 512 512.00104" width="512pt" xmlns="http://www.w3.org/2000/svg"><path d="m510.648438 256c0-141.386719-114.3125-256-255.324219-256s-255.324219 114.613281-255.324219 256 114.3125 256 255.324219 256 255.324219-114.613281 255.324219-256zm0 0" fill="#89c8fd"/><path d="m255.324219 0c-7.699219 0-15.3125.359375-22.839844 1.03125 130.308594 11.585938 232.488281 121.304688 232.488281 254.96875s-102.175781 243.382812-232.488281 254.96875c7.527344.671875 15.140625 1.03125 22.839844 1.03125 141.011719 0 255.324219-114.613281 255.324219-256s-114.3125-256-255.324219-256zm0 0" fill="#60b6ff"/><path d="m85.707031 371.84375c-11.808593-18.015625 20.894531-60.386719 28.269531-92.429688 7.375-32.042968-36.871093-29.574218-50.390624-40.667968-13.519532-11.089844-31.957032-59.152344-45.476563-70.246094l-1.953125-2.261719c-10.433594 27.933594-16.15234375 58.175781-16.15234375 89.761719 0 82.480469 38.91406275 155.839844 99.33203175 202.660156l4.808593-1.785156s9.832031-41.898438-18.4375-85.03125zm0 0" fill="#baeb6c"/><path d="m220.363281 59.832031c17.558594 31.355469 84.03125 5.015625 119.148438 52.675781 22.195312 30.121094 50.792969 113.5 145.484375 58.945313l9.308594-5.71875c-36.40625-96.839844-129.660157-165.734375-238.980469-165.734375-9.011719 0-17.914063.472656-26.683594 1.386719l-.125.125s-25.710937 26.964843-8.152344 58.320312zm0 0" fill="#baeb6c"/><path d="m255.324219 0c-7.910157 0-15.726563.386719-23.449219 1.09375 99.6875 9.691406 188.511719 83.648438 222.96875 183.988281 9.238281-2.917969 19.25-7.347656 30.152344-13.628906l9.304687-5.71875c-36.402343-96.839844-129.65625-165.734375-238.976562-165.734375zm0 0" fill="#96d629"/><path d="m457.242188 412.675781-1.113282-.390625s4.816406 3.4375-40.570312-13.066406c-45.390625-16.503906-34.386719 60.519531-119.660156 38.511719-37.382813-9.648438-39.886719 55.015625-41.261719 71.519531l.035156 2.742188c.21875 0 .433594.007812.652344.007812 82.140625 0 155.210937-38.902344 201.917969-99.324219zm0 0" fill="#baeb6c"/><path d="m456.128906 412.285156s4.480469 3.203125-36.027344-11.417968c-.292968.511718-.859374 1.308593-1.867187 2.15625-38.238281 48.148437-98.6875 90.027343-163.425781 104.011718-.0625.808594-.117188 1.554688-.171875 2.214844l.035156 2.742188c.21875 0 .433594.007812.652344.007812 82.140625 0 155.210937-38.902344 201.914062-99.324219zm0 0" fill="#96d629"/><path d="m217.855469 311.914062h78.394531s-8.066406 77.242188-39.195312 77.242188c-29.976563 0-39.199219-77.242188-39.199219-77.242188zm0 0" fill="#fff"/><g fill="#0181fb"><path d="m224.222656 241.605469c-4.300781 0-7.785156-3.484375-7.785156-7.785157 0-17.019531-13.84375-30.863281-30.863281-30.863281-17.015625 0-30.863281 13.84375-30.863281 30.863281 0 4.300782-3.484376 7.785157-7.785157 7.785157s-7.785156-3.484375-7.785156-7.785157c0-25.605468 20.832031-46.433593 46.433594-46.433593 25.605469 0 46.433593 20.828125 46.433593 46.433593 0 4.300782-3.484374 7.785157-7.785156 7.785157zm0 0"/><path d="m363.722656 241.605469c-4.300781 0-7.785156-3.484375-7.785156-7.785157 0-17.019531-13.847656-30.863281-30.863281-30.863281-17.019531 0-30.863281 13.84375-30.863281 30.863281 0 4.300782-3.484376 7.785157-7.785157 7.785157s-7.785156-3.484375-7.785156-7.785157c0-25.605468 20.828125-46.433593 46.433594-46.433593 25.601562 0 46.433593 20.828125 46.433593 46.433593 0 4.300782-3.484374 7.785157-7.785156 7.785157zm0 0"/></g></svg>