<?xml version="1.0" encoding="iso-8859-1"?>
<!-- Generator: Adobe Illustrator 19.0.0, SVG Export Plug-In . SVG Version: 6.00 Build 0)  -->
<svg xmlns="http://www.w3.org/2000/svg" xmlns:xlink="http://www.w3.org/1999/xlink" version="1.1" id="Layer_1" x="0px" y="0px" viewBox="0 0 512.276 512.276" style="enable-background:new 0 0 512.276 512.276;" xml:space="preserve">
<path style="fill:#CED6E0;" d="M190.436,312.81c-13.867,38.4-43.733,135.467-20.267,170.667c24.533,38.4,134.4,38.4,158.933,0  c23.467-36.267-7.467-133.333-20.267-170.667H190.436z"/>
<path style="fill:#F3705A;" d="M267.236,0.276c-131.2-6.4-241.067,99.2-241.067,230.4c0,20.267,2.133,39.467,7.467,57.6  c8.533,34.133,42.667,54.4,76.8,46.933c97.067-22.4,195.2-22.4,292.267,0c33.067,7.467,67.2-11.733,75.733-45.867  c5.333-20.267,8.533-40.533,7.467-62.933C484.836,106.943,387.769,6.676,267.236,0.276z"/>
<g>
	<path style="fill:#415A6B;" d="M60.303,110.143c22.4,34.133,59.733,56.533,103.467,56.533c68.267,0,123.733-55.467,123.733-123.733   c0-14.933-2.133-27.733-7.467-41.6c-4.267,0-8.533-1.067-12.8-1.067C179.769-3.99,102.969,41.876,60.303,110.143z"/>
	<path style="fill:#415A6B;" d="M142.436,281.876c0-35.2-28.8-64-64-64c-21.333,0-39.467,9.6-51.2,25.6   c1.067,14.933,3.2,29.867,7.467,44.8c8.533,34.133,42.667,54.4,76.8,46.933c2.133,0,4.267-1.067,6.4-1.067   C131.769,321.343,142.436,303.21,142.436,281.876z"/>
	<circle style="fill:#415A6B;" cx="331.236" cy="166.676" r="55.467"/>
	<path style="fill:#415A6B;" d="M477.369,292.543c-6.4-18.133-24.533-30.933-44.8-30.933c-26.667,0-48,21.333-48,48   c0,8.533,2.133,16,6.4,22.4c4.267,1.067,7.467,1.067,11.733,2.133C434.703,341.61,467.769,323.476,477.369,292.543z"/>
</g>
<g>
</g>
<g>
</g>
<g>
</g>
<g>
</g>
<g>
</g>
<g>
</g>
<g>
</g>
<g>
</g>
<g>
</g>
<g>
</g>
<g>
</g>
<g>
</g>
<g>
</g>
<g>
</g>
<g>
</g>
</svg>
